PathFileType	4	(X/Y/Z)	Patient4_TMGait_0pt2_02_right_16.trc.trc
DataRate	CameraRate	NumFrames	NumMarkers	Units	OrigDataRate	OrigDataStartFrame	OrigNumFrames
44.871794871795	44.871794871795	6	33	mm	44.871794871795	1	       141
Frame#	Time	R.Midfoot.Superior			Sacral			L.Shoulder			Chest			R.Shoulder			Neck			R.ASIS			L.ASIS			R.Thigh.Superior			R.Thigh.Lateral			R.Thigh.Inferior			R.Patella			L.Thigh.Superior			L.Thigh.Lateral			L.Thigh.Inferior			L.Patella			L.Shank.Superior			L.Shank.Lateral			L.Shank.Inferior			R.Shank.Superior			R.Shank.Lateral			R.Shank.Inferior			R.Heel			R.Midfoot.Lateral			R.Toe			L.Heel			L.Midfoot.Lateral			L.Midfoot.Superior			L.Toe			L.Elbow			L.Wrist			R.Elbow			R.Wrist			
		X1	Y1	Z1	X2	Y2	Z2	X3	Y3	Z3	X4	Y4	Z4	X5	Y5	Z5	X6	Y6	Z6	X7	Y7	Z7	X8	Y8	Z8	X9	Y9	Z9	X10	Y10	Z10	X11	Y11	Z11	X12	Y12	Z12	X13	Y13	Z13	X14	Y14	Z14	X15	Y15	Z15	X16	Y16	Z16	X17	Y17	Z17	X18	Y18	Z18	X19	Y19	Z19	X20	Y20	Z20	X21	Y21	Z21	X22	Y22	Z22	X23	Y23	Z23	X24	Y24	Z24	X25	Y25	Z25	X26	Y26	Z26	X27	Y27	Z27	X28	Y28	Z28	X29	Y29	Z29	X30	Y30	Z30	X31	Y31	Z31	X32	Y32	Z32	X33	Y33	Z33	

1	35.550000000000	900.417113839923	147.886776134903	605.145835242757	865.617513789650	991.731218529065	418.045179553076	1067.498024355762	1411.951333840395	225.697329503573	1166.800700753286	1336.255797168177	385.818843975442	1093.378415161032	1416.340221638438	560.174978327860	1052.549730913536	1475.738527691651	383.946870566417	1096.569687581053	922.804958618870	529.774147002717	1077.137598541033	940.302182666497	255.527036836642	1158.657005174128	736.053714633345	509.878587678847	1100.542182841236	623.889166435796	590.085083015459	1183.841880191755	568.763058873801	513.966961187375	1185.328108279331	456.668749589382	543.128119036320	1146.617699234381	745.927466511880	299.698428494824	1080.042747384339	614.195527606465	245.872203918854	1173.445568698016	552.816768688419	317.578481166411	1182.702917496000	477.032254028355	327.986843013864	1143.481144977386	401.252767877622	324.308275152861	1041.363453104156	297.962588688711	271.872509628772	1068.428548005906	184.558604283120	349.508082351004	1101.518353707479	392.916828566406	555.905996477111	981.322801339086	370.895646029944	628.202056021564	948.222321004554	263.786286397622	583.541349387721	737.984388865670	229.871896410313	575.149064588423	793.059264363347	160.817221886661	643.766778647351	952.005669780012	28.531736424097	624.462574197443	919.171064408154	40.383663638589	386.719255200354	996.664806302910	36.579516213615	309.952511937249	1080.105749835546	95.836909747467	340.794107109769	1208.552613269831	40.462389214456	317.052262234349	1136.863351297033	1084.386958729331	74.323493187330	1316.919486458496	891.869727001275	68.004716254138	1056.174427546906	1063.199969548193	676.738793187519	1131.984036059454	813.023321507371	694.498969796552	
2	35.572285714286	914.360494717915	152.471009372140	602.431061953769	864.052820024591	991.529769210854	414.012913343941	1070.995448838792	1411.858380266307	224.444756381121	1166.225228708375	1336.272295283819	386.814180908978	1088.636957341302	1416.506218661371	559.134881333682	1052.576839040263	1475.645459222622	382.307839083709	1094.443446419447	923.646365452855	527.976618827117	1077.352138304708	940.299712956881	253.548988021489	1161.655835214633	741.660831894863	506.186518567913	1109.120052301289	628.358414447634	587.304573044067	1193.077066140499	575.637435849964	510.067565731160	1198.338751533433	463.112075109622	539.329761504793	1145.908604210180	744.850567288596	298.235592158785	1078.935972322862	613.377894645099	245.064028127986	1171.508672402350	551.840471372283	317.640676648801	1180.311260857410	476.112458989874	328.520898324356	1140.536541751759	400.450156439605	324.685965168086	1038.434222889214	297.537995437496	271.815673316386	1064.504736970141	184.159074096252	349.681736682448	1114.839338817770	397.890158816103	552.740480561842	994.412004295472	375.792570760872	624.988549790573	961.587774378598	268.189589127212	580.827407994096	750.858702681823	233.125732717076	573.125407841596	806.941299074594	164.537697434087	641.567977406091	966.953739048099	33.156632585301	621.562090454357	914.642720092762	40.325974295477	386.633243386697	992.181020200680	36.576628237456	309.875741725274	1075.594631467138	95.787067841242	340.825833137466	1204.084028223254	40.469075496189	317.035189096452	1150.464902172060	1089.715731106341	70.943590268719	1340.708083320778	909.266090462198	64.083849982784	1029.343774393307	1069.117108752743	673.423152048858	1085.008077599688	816.144799067294	690.966849168846	
3	35.594571428571	929.972587440604	156.061504621475	600.059012866264	862.533425100968	991.571433576361	409.772631660287	1074.586616800149	1411.999605795617	223.272747621782	1165.596180894776	1336.574647247212	387.943898969662	1083.701041003854	1416.992314812029	558.079891532174	1052.523711315667	1475.787169775131	380.695239810023	1092.154003153620	924.725468063885	526.310474158308	1077.736851355298	940.487527399953	251.752110632723	1164.320541690012	747.388633596496	502.689507157713	1117.186055174284	632.965371961531	584.628459786046	1201.783930603200	582.621342482762	506.329913773742	1210.889671938222	469.861547671354	535.718458343353	1145.119235796156	743.833551610285	296.917828336787	1077.617992606183	612.696598693179	244.262033731600	1169.197098085268	550.894553259169	317.763687146539	1177.466377474925	475.265337077266	329.105991424304	1137.179370103015	399.750823275344	325.067330693498	1035.173740546102	297.152208189907	271.740317687995	1060.310607744279	183.809289117062	349.842034553456	1128.059020235287	402.929799084856	549.778184956636	1007.622450153079	380.014321855043	621.990850775123	975.826709150713	271.756597961761	578.357512226119	765.038598929220	234.096213601488	571.277739112543	822.493239924354	166.493656949782	639.621773346104	984.327541147340	37.295495843813	619.082378742340	909.928304792034	40.265694781796	386.544400235755	987.513670619675	36.567590959219	309.793484763224	1070.898183676469	95.740338759788	340.846549603330	1199.432723675322	40.477907351351	317.019813246723	1164.231141598885	1095.439116791383	67.683035437180	1364.720777306022	927.638341443400	60.503477649999	1002.156348758428	1075.890962752288	669.841032041643	1037.518623133278	820.476749522465	686.991669216661	
4	35.616857142857	947.386714585891	158.183166492218	598.283272900090	861.135274225381	991.951143566339	405.416139428432	1078.175631906269	1412.452496524307	222.266426407271	1164.915199218782	1337.253933881396	389.223348833705	1078.687077289309	1417.903216632024	557.047048731765	1052.365253413204	1476.245320856567	379.182812613434	1089.719925933699	926.083522717916	524.902006587362	1078.348554596216	940.932483513784	250.279000394962	1166.373158127196	753.017965341533	499.637022076637	1124.138883498919	637.546944884198	582.234701290248	1209.335230529526	589.432417786696	503.009928022092	1222.209935190504	476.744090157390	532.544618855376	1144.231519478779	742.934278730623	295.850962258726	1076.036560455757	612.233439950468	243.495110403674	1166.432025761887	550.025914853455	317.953526367265	1174.074810567388	474.553217920492	329.724689372012	1133.359812087344	399.224562440746	325.426282257369	1031.558530099880	296.834461267883	271.635739019141	1055.887005372988	183.543362038142	349.973578324412	1140.566431232885	407.857455280397	547.252323724712	1020.492703487270	383.107295241989	619.450846514690	990.773339357558	274.044386563650	576.359478032171	780.648567097447	231.857683922618	569.784807357849	839.906501814212	165.960284757183	638.137525197078	1004.478059693891	40.720890337317	617.318568172846	905.124999399682	40.203230854187	386.454937451137	982.759406380691	36.550500464320	309.706608809776	1066.113588983902	95.699688630452	340.850972299565	1194.695415638290	40.489943320888	317.007718976153	1177.708318528290	1101.488926867776	64.736084402804	1388.105748365613	946.655780129881	57.567943915391	975.586985515296	1083.548464695194	666.024709383044	991.286230749482	826.256432987997	682.542636230041	
5	35.639142857143	966.712507113639	158.540842363985	597.313440149931	859.916855243640	992.730141342412	401.028168402439	1081.691127593187	1413.258686134244	221.492182228118	1164.185357245885	1338.360651324387	390.662812171558	1073.694467860663	1419.304552454385	556.065603499048	1052.089293230276	1477.069015682129	377.825383858022	1087.155356394140	927.732188431758	523.853597784031	1079.227857136397	941.674389036771	249.238690384066	1167.580425669008	758.336483343958	497.244916973199	1129.474399493842	641.944367499959	580.294213684615	1215.204871984555	595.800742488524	500.338845745264	1231.646257047937	483.583586929757	530.030395250938	1143.220375294698	742.190507875836	295.104935716265	1074.139875754024	612.047615009856	242.776907529480	1163.148612174908	549.267669495438	318.195262422953	1170.060394293613	474.022272652133	330.342545070533	1129.038710252647	398.922581065558	325.727163675801	1027.565491992660	296.604330775135	271.485793412830	1051.262970070452	183.386400378064	350.059981942353	1151.848683546971	412.518813410192	545.372420578735	1032.660807861915	384.722944541196	617.581293345539	1006.301269427838	274.752483184964	575.033638722334	797.862205776564	225.773232584440	568.806902937645	859.375174039634	162.463956928497	637.293176815385	1027.646456654875	43.363270374108	616.511826674305	900.305482165756	40.139088588799	386.366291543861	977.989523457803	36.523772499914	309.615725781318	1061.312383832940	95.666853658303	340.834810821868	1189.943687880211	40.506179315748	317.000069366994	1190.557815026838	1107.794391787460	62.261404365096	1410.196809073879	966.022848479563	55.520407132387	950.456331224454	1092.037881411688	662.012968313940	947.805682754816	833.554589300458	677.601330310558	
6	35.661428571429	987.972962202489	157.072025676435	597.288355744844	858.913789786000	993.924925256737	396.689014977453	1085.087498267177	1414.414683112525	220.993142987935	1163.412137679290	1339.893387708027	392.264586291531	1068.804854694668	1421.208924314883	555.157375409658	1051.699498144091	1478.264556961899	376.656741035755	1084.474469458918	929.646579901289	523.233122825337	1080.390007701873	942.717549263603	248.695674989415	1167.779423489056	763.151192227089	495.674754393686	1132.830974482945	646.009471512337	578.951714623817	1219.018229090604	601.486683907400	498.503026103402	1238.719793816114	490.206380576613	528.346459276345	1142.058095437965	741.615832565272	294.709064895003	1071.887898051676	612.167802802802	242.107623536128	1159.312070192922	548.636109506196	318.456529296151	1165.383098565617	473.696855083894	330.913265990340	1124.202527387208	398.870751841505	325.930688597883	1023.183519300052	296.469810771309	271.272629879298	1046.461230720176	183.351301328101	350.086691131057	1161.527567165877	416.794759243024	544.300255913387	1043.886622646006	384.664943184696	616.545295753094	1022.301862142359	273.773138482019	574.530033001516	816.842598049648	215.619490587887	568.473673479337	881.025796246863	155.874765447792	637.216110570137	1053.867234710659	45.326941324300	616.813362156492	895.517442626992	40.073970939363	386.279254046388	973.249502438615	36.486482767772	309.521439921163	1056.540166953313	95.642208946208	340.795599837684	1185.223307949185	40.527319389575	316.997530557914	1202.570770244356	1114.275471045866	60.371724259893	1430.547240579415	985.471600808608	54.520538219888	927.386686181633	1101.206594684589	657.854732125147	908.214325026048	842.239094288735	672.178580666391	
